  0
SECTION
  2
BLOCKS
  0
ENDSEC
  0
SECTION
  2
ENTITIES
  0
LINE
  8
0
 10
222.071
 20
-82.7246
 11
235.858
 21
-80.2935
  0
LINE
  8
0
 10
235.858
 20
-80.2935
 11
233.427
 21
-66.5062
  0
LINE
  8
0
 10
233.427
 20
-66.5062
 11
219.64
 21
-68.9373
  0
LINE
  8
0
 10
219.64
 20
-68.9373
 11
222.071
 21
-82.7246
  0
LINE
  8
0
 10
218.763
 20
-63.964
 11
232.55
 21
-61.5329
  0
LINE
  8
0
 10
232.55
 20
-61.5329
 11
230.119
 21
-47.7456
  0
LINE
  8
0
 10
230.119
 20
-47.7456
 11
216.332
 21
-50.1767
  0
LINE
  8
0
 10
216.332
 20
-50.1767
 11
218.763
 21
-63.964
  0
LINE
  8
0
 10
215.455
 20
-45.2034
 11
229.242
 21
-42.7723
  0
LINE
  8
0
 10
229.242
 20
-42.7723
 11
226.811
 21
-28.985
  0
LINE
  8
0
 10
226.811
 20
-28.985
 11
213.024
 21
-31.4161
  0
LINE
  8
0
 10
213.024
 20
-31.4161
 11
215.455
 21
-45.2034
  0
LINE
  8
0
 10
212.147
 20
-26.4428
 11
225.934
 21
-24.0117
  0
LINE
  8
0
 10
225.934
 20
-24.0117
 11
223.503
 21
-10.2244
  0
LINE
  8
0
 10
223.503
 20
-10.2244
 11
209.716
 21
-12.6555
  0
LINE
  8
0
 10
209.716
 20
-12.6555
 11
212.147
 21
-26.4428
  0
LINE
  8
0
 10
202.483
 20
-81.3424
 11
216.27
 21
-78.9113
  0
LINE
  8
0
 10
216.27
 20
-78.9113
 11
213.839
 21
-65.124
  0
LINE
  8
0
 10
213.839
 20
-65.124
 11
200.052
 21
-67.5551
  0
LINE
  8
0
 10
200.052
 20
-67.5551
 11
202.483
 21
-81.3424
  0
LINE
  8
0
 10
199.175
 20
-62.5818
 11
212.962
 21
-60.1507
  0
LINE
  8
0
 10
212.962
 20
-60.1507
 11
210.531
 21
-46.3634
  0
LINE
  8
0
 10
210.531
 20
-46.3634
 11
196.744
 21
-48.7945
  0
LINE
  8
0
 10
196.744
 20
-48.7945
 11
199.175
 21
-62.5818
  0
LINE
  8
0
 10
195.867
 20
-43.8212
 11
209.654
 21
-41.3902
  0
LINE
  8
0
 10
209.654
 20
-41.3902
 11
207.223
 21
-27.6028
  0
LINE
  8
0
 10
207.223
 20
-27.6028
 11
193.436
 21
-30.0339
  0
LINE
  8
0
 10
193.436
 20
-30.0339
 11
195.867
 21
-43.8212
  0
LINE
  8
0
 10
192.559
 20
-25.0606
 11
206.346
 21
-22.6296
  0
LINE
  8
0
 10
206.346
 20
-22.6296
 11
203.915
 21
-8.84227
  0
LINE
  8
0
 10
203.915
 20
-8.84227
 11
190.128
 21
-11.2733
  0
LINE
  8
0
 10
190.128
 20
-11.2733
 11
192.559
 21
-25.0606
  0
LINE
  8
0
 10
182.565
 20
-78.0842
 11
196.352
 21
-75.6531
  0
LINE
  8
0
 10
196.352
 20
-75.6531
 11
193.921
 21
-61.8658
  0
LINE
  8
0
 10
193.921
 20
-61.8658
 11
180.134
 21
-64.2969
  0
LINE
  8
0
 10
180.134
 20
-64.2969
 11
182.565
 21
-78.0842
  0
LINE
  8
0
 10
179.257
 20
-59.3236
 11
193.044
 21
-56.8925
  0
LINE
  8
0
 10
193.044
 20
-56.8925
 11
190.613
 21
-43.1052
  0
LINE
  8
0
 10
190.613
 20
-43.1052
 11
176.826
 21
-45.5363
  0
LINE
  8
0
 10
176.826
 20
-45.5363
 11
179.257
 21
-59.3236
  0
LINE
  8
0
 10
175.949
 20
-40.563
 11
189.736
 21
-38.132
  0
LINE
  8
0
 10
189.736
 20
-38.132
 11
187.305
 21
-24.3446
  0
LINE
  8
0
 10
187.305
 20
-24.3446
 11
173.518
 21
-26.7757
  0
LINE
  8
0
 10
173.518
 20
-26.7757
 11
175.949
 21
-40.563
  0
LINE
  8
0
 10
172.641
 20
-21.8024
 11
186.428
 21
-19.3714
  0
LINE
  8
0
 10
186.428
 20
-19.3714
 11
183.997
 21
-5.58406
  0
LINE
  8
0
 10
183.997
 20
-5.58406
 11
170.21
 21
-8.01514
  0
LINE
  8
0
 10
170.21
 20
-8.01514
 11
172.641
 21
-21.8024
  0
LINE
  8
0
 10
164.962
 20
-87.9584
 11
178.749
 21
-85.5273
  0
LINE
  8
0
 10
178.749
 20
-85.5273
 11
176.318
 21
-71.74
  0
LINE
  8
0
 10
176.318
 20
-71.74
 11
162.531
 21
-74.1711
  0
LINE
  8
0
 10
162.531
 20
-74.1711
 11
164.962
 21
-87.9584
  0
LINE
  8
0
 10
161.654
 20
-69.1978
 11
175.441
 21
-66.7667
  0
LINE
  8
0
 10
175.441
 20
-66.7667
 11
173.01
 21
-52.9794
  0
LINE
  8
0
 10
173.01
 20
-52.9794
 11
159.223
 21
-55.4105
  0
LINE
  8
0
 10
159.223
 20
-55.4105
 11
161.654
 21
-69.1978
  0
LINE
  8
0
 10
158.346
 20
-50.4372
 11
172.133
 21
-48.0061
  0
LINE
  8
0
 10
172.133
 20
-48.0061
 11
169.702
 21
-34.2188
  0
LINE
  8
0
 10
169.702
 20
-34.2188
 11
155.915
 21
-36.6499
  0
LINE
  8
0
 10
155.915
 20
-36.6499
 11
158.346
 21
-50.4372
  0
LINE
  8
0
 10
155.038
 20
-31.6766
 11
168.825
 21
-29.2456
  0
LINE
  8
0
 10
168.825
 20
-29.2456
 11
166.394
 21
-15.4583
  0
LINE
  8
0
 10
166.394
 20
-15.4583
 11
152.607
 21
-17.8893
  0
LINE
  8
0
 10
152.607
 20
-17.8893
 11
155.038
 21
-31.6766
  0
LINE
  8
0
 10
147.359
 20
-97.8326
 11
161.146
 21
-95.4015
  0
LINE
  8
0
 10
161.146
 20
-95.4015
 11
158.715
 21
-81.6142
  0
LINE
  8
0
 10
158.715
 20
-81.6142
 11
144.928
 21
-84.0453
  0
LINE
  8
0
 10
144.928
 20
-84.0453
 11
147.359
 21
-97.8326
  0
LINE
  8
0
 10
144.051
 20
-79.072
 11
157.838
 21
-76.6409
  0
LINE
  8
0
 10
157.838
 20
-76.6409
 11
155.407
 21
-62.8536
  0
LINE
  8
0
 10
155.407
 20
-62.8536
 11
141.62
 21
-65.2847
  0
LINE
  8
0
 10
141.62
 20
-65.2847
 11
144.051
 21
-79.072
  0
LINE
  8
0
 10
140.743
 20
-60.3114
 11
154.53
 21
-57.8804
  0
LINE
  8
0
 10
154.53
 20
-57.8804
 11
152.099
 21
-44.093
  0
LINE
  8
0
 10
152.099
 20
-44.093
 11
138.312
 21
-46.5241
  0
LINE
  8
0
 10
138.312
 20
-46.5241
 11
140.743
 21
-60.3114
  0
LINE
  8
0
 10
137.435
 20
-41.5508
 11
151.222
 21
-39.1198
  0
LINE
  8
0
 10
151.222
 20
-39.1198
 11
148.791
 21
-25.3325
  0
LINE
  8
0
 10
148.791
 20
-25.3325
 11
135.004
 21
-27.7635
  0
LINE
  8
0
 10
135.004
 20
-27.7635
 11
137.435
 21
-41.5508
  0
LINE
  8
0
 10
126.117
 20
-87.0702
 11
139.905
 21
-84.6391
  0
LINE
  8
0
 10
139.905
 20
-84.6391
 11
137.474
 21
-70.8518
  0
LINE
  8
0
 10
137.474
 20
-70.8518
 11
123.686
 21
-73.2829
  0
LINE
  8
0
 10
123.686
 20
-73.2829
 11
126.117
 21
-87.0702
  0
LINE
  8
0
 10
114.781
 20
-86.226
 11
117.212
 21
-72.4387
  0
LINE
  8
0
 10
117.212
 20
-72.4387
 11
103.425
 21
-70.0077
  0
LINE
  8
0
 10
103.425
 20
-70.0077
 11
100.994
 21
-83.795
  0
LINE
  8
0
 10
100.994
 20
-83.795
 11
114.781
 21
-86.226
  0
LINE
  8
0
 10
103.464
 20
-40.7067
 11
105.895
 21
-26.9194
  0
LINE
  8
0
 10
105.895
 20
-26.9194
 11
92.1075
 21
-24.4883
  0
LINE
  8
0
 10
92.1075
 20
-24.4883
 11
89.6765
 21
-38.2757
  0
LINE
  8
0
 10
89.6765
 20
-38.2757
 11
103.464
 21
-40.7067
  0
LINE
  8
0
 10
100.156
 20
-59.4673
 11
102.587
 21
-45.68
  0
LINE
  8
0
 10
102.587
 20
-45.68
 11
88.7995
 21
-43.2489
  0
LINE
  8
0
 10
88.7995
 20
-43.2489
 11
86.3685
 21
-57.0362
  0
LINE
  8
0
 10
86.3685
 20
-57.0362
 11
100.156
 21
-59.4673
  0
LINE
  8
0
 10
96.8478
 20
-78.2279
 11
99.2789
 21
-64.4406
  0
LINE
  8
0
 10
99.2789
 20
-64.4406
 11
85.4915
 21
-62.0095
  0
LINE
  8
0
 10
85.4915
 20
-62.0095
 11
83.0605
 21
-75.7968
  0
LINE
  8
0
 10
83.0605
 20
-75.7968
 11
96.8478
 21
-78.2279
  0
LINE
  8
0
 10
93.5398
 20
-96.9885
 11
95.9709
 21
-83.2012
  0
LINE
  8
0
 10
95.9709
 20
-83.2012
 11
82.1835
 21
-80.7701
  0
LINE
  8
0
 10
82.1835
 20
-80.7701
 11
79.7525
 21
-94.5574
  0
LINE
  8
0
 10
79.7525
 20
-94.5574
 11
93.5398
 21
-96.9885
  0
LINE
  8
0
 10
85.861
 20
-30.8325
 11
88.2921
 21
-17.0452
  0
LINE
  8
0
 10
88.2921
 20
-17.0452
 11
74.5048
 21
-14.6141
  0
LINE
  8
0
 10
74.5048
 20
-14.6141
 11
72.0737
 21
-28.4014
  0
LINE
  8
0
 10
72.0737
 20
-28.4014
 11
85.861
 21
-30.8325
  0
LINE
  8
0
 10
82.553
 20
-49.5931
 11
84.9841
 21
-35.8058
  0
LINE
  8
0
 10
84.9841
 20
-35.8058
 11
71.1968
 21
-33.3747
  0
LINE
  8
0
 10
71.1968
 20
-33.3747
 11
68.7657
 21
-47.162
  0
LINE
  8
0
 10
68.7657
 20
-47.162
 11
82.553
 21
-49.5931
  0
LINE
  8
0
 10
79.245
 20
-68.3537
 11
81.6761
 21
-54.5664
  0
LINE
  8
0
 10
81.6761
 20
-54.5664
 11
67.8888
 21
-52.1353
  0
LINE
  8
0
 10
67.8888
 20
-52.1353
 11
65.4577
 21
-65.9226
  0
LINE
  8
0
 10
65.4577
 20
-65.9226
 11
79.245
 21
-68.3537
  0
LINE
  8
0
 10
75.937
 20
-87.1143
 11
78.3681
 21
-73.327
  0
LINE
  8
0
 10
78.3681
 20
-73.327
 11
64.5808
 21
-70.8959
  0
LINE
  8
0
 10
64.5808
 20
-70.8959
 11
62.1497
 21
-84.6832
  0
LINE
  8
0
 10
62.1497
 20
-84.6832
 11
75.937
 21
-87.1143
  0
LINE
  8
0
 10
68.2582
 20
-20.9583
 11
70.6893
 21
-7.17101
  0
LINE
  8
0
 10
70.6893
 20
-7.17101
 11
56.902
 21
-4.73993
  0
LINE
  8
0
 10
56.902
 20
-4.73993
 11
54.4709
 21
-18.5272
  0
LINE
  8
0
 10
54.4709
 20
-18.5272
 11
68.2582
 21
-20.9583
  0
LINE
  8
0
 10
64.9502
 20
-39.7189
 11
67.3813
 21
-25.9316
  0
LINE
  8
0
 10
67.3813
 20
-25.9316
 11
53.594
 21
-23.5005
  0
LINE
  8
0
 10
53.594
 20
-23.5005
 11
51.1629
 21
-37.2878
  0
LINE
  8
0
 10
51.1629
 20
-37.2878
 11
64.9502
 21
-39.7189
  0
LINE
  8
0
 10
61.6422
 20
-58.4795
 11
64.0733
 21
-44.6922
  0
LINE
  8
0
 10
64.0733
 20
-44.6922
 11
50.286
 21
-42.2611
  0
LINE
  8
0
 10
50.286
 20
-42.2611
 11
47.8549
 21
-56.0484
  0
LINE
  8
0
 10
47.8549
 20
-56.0484
 11
61.6422
 21
-58.4795
  0
LINE
  8
0
 10
58.3342
 20
-77.2401
 11
60.7653
 21
-63.4528
  0
LINE
  8
0
 10
60.7653
 20
-63.4528
 11
46.978
 21
-61.0217
  0
LINE
  8
0
 10
46.978
 20
-61.0217
 11
44.5469
 21
-74.809
  0
LINE
  8
0
 10
44.5469
 20
-74.809
 11
58.3342
 21
-77.2401
  0
LINE
  8
0
 10
48.3398
 20
-24.2165
 11
50.7709
 21
-10.4292
  0
LINE
  8
0
 10
50.7709
 20
-10.4292
 11
36.9836
 21
-7.99814
  0
LINE
  8
0
 10
36.9836
 20
-7.99814
 11
34.5525
 21
-21.7854
  0
LINE
  8
0
 10
34.5525
 20
-21.7854
 11
48.3398
 21
-24.2165
  0
LINE
  8
0
 10
45.0318
 20
-42.9771
 11
47.4629
 21
-29.1898
  0
LINE
  8
0
 10
47.4629
 20
-29.1898
 11
33.6756
 21
-26.7587
  0
LINE
  8
0
 10
33.6756
 20
-26.7587
 11
31.2445
 21
-40.546
  0
LINE
  8
0
 10
31.2445
 20
-40.546
 11
45.0318
 21
-42.9771
  0
LINE
  8
0
 10
41.7238
 20
-61.7377
 11
44.1549
 21
-47.9504
  0
LINE
  8
0
 10
44.1549
 20
-47.9504
 11
30.3676
 21
-45.5193
  0
LINE
  8
0
 10
30.3676
 20
-45.5193
 11
27.9365
 21
-59.3066
  0
LINE
  8
0
 10
27.9365
 20
-59.3066
 11
41.7238
 21
-61.7377
  0
LINE
  8
0
 10
38.4158
 20
-80.4983
 11
40.8469
 21
-66.711
  0
LINE
  8
0
 10
40.8469
 20
-66.711
 11
27.0596
 21
-64.2799
  0
LINE
  8
0
 10
27.0596
 20
-64.2799
 11
24.6285
 21
-78.0672
  0
LINE
  8
0
 10
24.6285
 20
-78.0672
 11
38.4158
 21
-80.4983
  0
LINE
  8
0
 10
28.7522
 20
-25.5987
 11
31.1833
 21
-11.8114
  0
LINE
  8
0
 10
31.1833
 20
-11.8114
 11
17.396
 21
-9.38028
  0
LINE
  8
0
 10
17.396
 20
-9.38028
 11
14.9649
 21
-23.1676
  0
LINE
  8
0
 10
14.9649
 20
-23.1676
 11
28.7522
 21
-25.5987
  0
LINE
  8
0
 10
25.4442
 20
-44.3593
 11
27.8753
 21
-30.5719
  0
LINE
  8
0
 10
27.8753
 20
-30.5719
 11
14.088
 21
-28.1409
  0
LINE
  8
0
 10
14.088
 20
-28.1409
 11
11.6569
 21
-41.9282
  0
LINE
  8
0
 10
11.6569
 20
-41.9282
 11
25.4442
 21
-44.3593
  0
LINE
  8
0
 10
22.1362
 20
-63.1198
 11
24.5673
 21
-49.3325
  0
LINE
  8
0
 10
24.5673
 20
-49.3325
 11
10.78
 21
-46.9015
  0
LINE
  8
0
 10
10.78
 20
-46.9015
 11
8.34892
 21
-60.6888
  0
LINE
  8
0
 10
8.34892
 20
-60.6888
 11
22.1362
 21
-63.1198
  0
LINE
  8
0
 10
18.8282
 20
-81.8804
 11
21.2593
 21
-68.0931
  0
LINE
  8
0
 10
21.2593
 20
-68.0931
 11
7.472
 21
-65.662
  0
LINE
  8
0
 10
7.472
 20
-65.662
 11
5.04092
 21
-79.4494
  0
LINE
  8
0
 10
5.04092
 20
-79.4494
 11
18.8282
 21
-81.8804
  0
ENDSEC
  0
SECTION
  2
OBJECTS
  0
DICTIONARY
  0
ENDSEC
  0
EOF
